# xmcd
#
# Track frame offsets:
#	150
#	15978
#	37718
#	54731
#	64349
#	73755
#	87285
#	103266
#	123511
#	138567
#	180450
#	196099
#	212057
#	229727
#	244946
#	261082
#	277364
#	294450
#	310319
#	339677
#
# Disc length: 4795 seconds
#
# Revision: 1
# Processed by: cddbd v1.5.2PL0 Copyright (c) Steve Scherf et al.
# Submitted via: audiograbber 1.83.01
#
DISCID=3412b914
DTITLE=Various Artist - Ladyhits - For Women Only - CD2
DYEAR=2003
DGENRE=Pop
TTITLE0=The Weather Girls - It's Raining Men
TTITLE1=ABBA - Gimme! Gimme! Gimme! (A man after nidnight)
TTITLE2=Cyndi Lauper - Girls Just Want To Have Fun
TTITLE3=The Chordettes - Loolipop
TTITLE4=The Beach Boys - Barbara Ann
TTITLE5=Miriam Makeba - Pata Pata
TTITLE6=Las Ketchup - The Ketchup Song (Aserejé)
TTITLE7=Ricky Martin - Maria
TTITLE8=Anastacia - Paid My Dues
TTITLE9=Moloko - Sing It Back
TTITLE10=Modjo Band - Lady (Hear Me Tonight)
TTITLE11=Spiller - Groovejet
TTITLE12=Daft Punk - One More Time
TTITLE13=Afro Medusa - Pasilda
TTITLE14=Blackjack - Into The Groove
TTITLE15=Sophie Ellis Bextor - Murder On The Dancefloor
TTITLE16=Mousse T. vs Hot 'N' Juicy - Horny '98
TTITLE17=Tom Jones, Mousse T. - Sexbomb
TTITLE18=Tiziano Ferro - Perdono
TTITLE19=data track - data track
EXTD=
EXTT0=
EXTT1=
EXTT2=
EXTT3=
EXTT4=
EXTT5=
EXTT6=
EXTT7=
EXTT8=
EXTT9=
EXTT10=
EXTT11=
EXTT12=
EXTT13=
EXTT14=
EXTT15=
EXTT16=
EXTT17=
EXTT18=
EXTT19=
PLAYORDER=
